<svg width="1920" height="1080" viewBox="0 0 1920 1080" fill="none" xmlns="http://www.w3.org/2000/svg">
  <defs>
    <linearGradient id="sky" x1="0" y1="0" x2="0" y2="1080" gradientUnits="userSpaceOnUse">
      <stop offset="0" stop-color="#f8fafc"/>
      <stop offset="1" stop-color="#e2e8f0"/>
    </linearGradient>
  </defs>

  <rect width="1920" height="1080" fill="url(#sky)"/>

  <rect x="0" y="860" width="1920" height="220" fill="#cbd5e1" opacity="0.55"/>

  <g opacity="0.5" fill="#94a3b8">
    <rect x="80" y="520" width="190" height="340"/>
    <rect x="320" y="440" width="220" height="420"/>
    <rect x="590" y="500" width="170" height="360"/>
    <rect x="800" y="390" width="240" height="470"/>
    <rect x="1080" y="460" width="200" height="400"/>
    <rect x="1320" y="420" width="260" height="440"/>
    <rect x="1620" y="500" width="210" height="360"/>
  </g>

  <g opacity="0.65" fill="#64748b">
    <rect x="140" y="610" width="90" height="250"/>
    <rect x="370" y="560" width="120" height="300"/>
    <rect x="640" y="620" width="80" height="240"/>
    <rect x="880" y="510" width="140" height="350"/>
    <rect x="1140" y="570" width="120" height="290"/>
    <rect x="1380" y="530" width="160" height="330"/>
    <rect x="1680" y="610" width="100" height="250"/>
  </g>

  <g stroke="#0f766e" stroke-width="10" opacity="0.35">
    <line x1="1030" y1="280" x2="1470" y2="280"/>
    <line x1="1240" y1="280" x2="1240" y2="770"/>
    <line x1="1450" y1="280" x2="1450" y2="640"/>
  </g>
</svg>
